<svg width="82" height="40" viewBox="0 0 82 40" fill="none" xmlns="http://www.w3.org/2000/svg">
<path d="M1 19C0.447715 19 -4.82823e-08 19.4477 0 20C4.82823e-08 20.5523 0.447715 21 1 21L1 19ZM81.7071 20.7071C82.0976 20.3166 82.0976 19.6834 81.7071 19.2929L75.3431 12.9289C74.9526 12.5384 74.3195 12.5384 73.9289 12.9289C73.5384 13.3195 73.5384 13.9526 73.9289 14.3431L79.5858 20L73.9289 25.6568C73.5384 26.0474 73.5384 26.6805 73.9289 27.0711C74.3195 27.4616 74.9526 27.4616 75.3431 27.0711L81.7071 20.7071ZM1 21L81 21L81 19L1 19L1 21Z" fill="white"/>
</svg>
