<svg width="82" height="8" viewBox="0 0 82 8" fill="none" xmlns="http://www.w3.org/2000/svg">
<path d="M1 3.5C0.723858 3.5 0.5 3.72386 0.5 4C0.5 4.27614 0.723858 4.5 1 4.5L1 3.5ZM81.3536 4.35355C81.5488 4.15828 81.5488 3.8417 81.3536 3.64644L78.1716 0.464459C77.9763 0.269197 77.6597 0.269197 77.4645 0.464459C77.2692 0.659722 77.2692 0.976304 77.4645 1.17157L80.2929 3.99999L77.4645 6.82842C77.2692 7.02368 77.2692 7.34027 77.4645 7.53553C77.6597 7.73079 77.9763 7.73079 78.1716 7.53553L81.3536 4.35355ZM1 4.5L81 4.49999L81 3.49999L1 3.5L1 4.5Z" fill="url(#paint0_linear_66_387)"/>
<defs>
<linearGradient id="paint0_linear_66_387" x1="41" y1="4" x2="41" y2="5" gradientUnits="userSpaceOnUse">
<stop stop-color="#957941"/>
<stop offset="1" stop-color="#C2A363"/>
</linearGradient>
</defs>
</svg>
