<svg width="82" height="40" viewBox="0 0 82 40" fill="none" xmlns="http://www.w3.org/2000/svg">
<path d="M81 19C81.5523 19 82 19.4477 82 20C82 20.5523 81.5523 21 81 21L81 19ZM0.292892 20.7071C-0.0976334 20.3166 -0.0976333 19.6834 0.292893 19.2929L6.65685 12.9289C7.04738 12.5384 7.68054 12.5384 8.07107 12.9289C8.46159 13.3195 8.46159 13.9526 8.07107 14.3431L2.41422 20L8.07107 25.6568C8.46159 26.0474 8.46159 26.6805 8.07107 27.0711C7.68054 27.4616 7.04738 27.4616 6.65685 27.0711L0.292892 20.7071ZM81 21L1 21L1 19L81 19L81 21Z" fill="white"/>
</svg>
