<svg width="43" height="48" viewBox="0 0 43 48" fill="none" xmlns="http://www.w3.org/2000/svg">
<path d="M17.0197 30.3208L14.7055 27.7365C14.3938 27.3927 13.9994 27.1574 13.5703 27.0591C13.1412 26.9608 12.6957 27.0037 12.288 27.1827L9.46755 28.4402C9.05553 28.627 8.70224 28.9458 8.4522 29.3564C8.20216 29.767 8.06657 30.2511 8.0625 30.7477V36.5163C8.0649 36.8541 8.12848 37.1878 8.24943 37.4974C8.37037 37.8071 8.54617 38.0861 8.76624 38.3179C8.98632 38.5496 9.24611 38.7293 9.52998 38.8459C9.81385 38.9626 10.1159 39.0139 10.418 38.9968C30.1817 37.6238 34.1696 18.9336 34.9237 11.7805C34.9588 11.4292 34.9268 11.0737 34.8299 10.7372C34.733 10.4007 34.5734 10.091 34.3617 9.82834C34.1499 9.56569 33.8907 9.35609 33.6012 9.21333C33.3117 9.07057 32.9983 8.99788 32.6819 9.00005H27.6919C27.2466 9.00152 26.8119 9.15172 26.4437 9.43134C26.0754 9.71096 25.7905 10.1072 25.6256 10.5691L24.4995 13.7188C24.334 14.1723 24.2917 14.6702 24.3781 15.1503C24.4644 15.6305 24.6756 16.0715 24.9851 16.4185L27.2993 19.0028C27.2993 19.0028 25.9666 29.0748 17.0197 30.3208Z" fill="white"/>
</svg>
