<svg width="32" height="36" viewBox="0 0 32 36" fill="none" xmlns="http://www.w3.org/2000/svg">
<path d="M12.6658 22.7406L10.9436 20.8023C10.7117 20.5445 10.4182 20.368 10.0988 20.2943C9.77947 20.2206 9.44796 20.2528 9.14454 20.387L7.04562 21.3302C6.739 21.4702 6.47609 21.7093 6.29001 22.0173C6.10394 22.3253 6.00303 22.6883 6 23.0608V27.3872C6.00178 27.6405 6.0491 27.8909 6.13911 28.1231C6.22911 28.3553 6.35994 28.5646 6.52372 28.7384C6.68749 28.9122 6.88082 29.0469 7.09208 29.1344C7.30333 29.2219 7.52813 29.2604 7.75295 29.2476C22.4608 28.2179 25.4285 14.2002 25.9898 8.83538C26.0158 8.57194 25.992 8.30526 25.9199 8.05291C25.8478 7.80056 25.7291 7.56825 25.5715 7.37126C25.4139 7.17427 25.221 7.01707 25.0055 6.91C24.7901 6.80292 24.5569 6.74841 24.3214 6.75004H20.6079C20.2765 6.75114 19.953 6.86379 19.679 7.07351C19.405 7.28322 19.193 7.5804 19.0702 7.92683L18.2322 10.2891C18.109 10.6292 18.0776 11.0026 18.1418 11.3627C18.2061 11.7228 18.3632 12.0537 18.5935 12.3139L20.3157 14.2521C20.3157 14.2521 19.3239 21.8061 12.6658 22.7406Z" fill="white"/>
</svg>
