<svg width="32" height="32" viewBox="0 0 32 32" fill="none" xmlns="http://www.w3.org/2000/svg">
<path fill-rule="evenodd" clip-rule="evenodd" d="M23.6234 13.625C23.742 13.2725 23.6234 13.0162 23.0984 13.0162H21.3527C20.9123 13.0162 20.709 13.2406 20.5903 13.4806C20.5903 13.4806 19.6923 15.5306 18.4383 16.8597C18.0317 17.2441 17.8453 17.3722 17.625 17.3722C17.5063 17.3722 17.3537 17.2441 17.3537 16.8919V13.6084C17.3537 13.1922 17.2183 13 16.8453 13H14.1C13.8287 13 13.6593 13.1922 13.6593 13.3844C13.6593 13.7847 14.2863 13.8809 14.354 15.0019V17.4375C14.354 17.9659 14.254 18.0625 14.032 18.0625C13.439 18.0625 11.9987 15.9966 11.1347 13.6425C10.9667 13.1762 10.796 13 10.3553 13H8.593C8.08467 13 8 13.2241 8 13.4644C8 13.8969 8.593 16.0747 10.762 18.9572C12.2023 20.9259 14.2527 21.9841 16.0997 21.9841C17.2183 21.9841 17.3537 21.7437 17.3537 21.3434V19.8541C17.3537 19.3737 17.4553 19.2937 17.8113 19.2937C18.0653 19.2937 18.523 19.4216 19.5567 20.3666C20.7427 21.4875 20.946 22 21.607 22H23.3524C23.8607 22 24.098 21.7597 23.9624 21.2953C23.81 20.8309 23.2337 20.1584 22.488 19.3578C22.0814 18.9097 21.4714 18.4131 21.285 18.1728C21.031 17.8525 21.0987 17.7244 21.285 17.4363C21.268 17.4363 23.4034 14.5856 23.6234 13.6238" fill="white"/>
<rect x="0.5" y="0.5" width="31" height="31" rx="15.5" stroke="url(#paint0_linear_66_332)"/>
<defs>
<linearGradient id="paint0_linear_66_332" x1="16" y1="0" x2="16" y2="32" gradientUnits="userSpaceOnUse">
<stop stop-color="#957941"/>
<stop offset="1" stop-color="#FFF1A5"/>
</linearGradient>
</defs>
</svg>
