<svg width="32" height="32" viewBox="0 0 32 32" fill="none" xmlns="http://www.w3.org/2000/svg">
<path fill-rule="evenodd" clip-rule="evenodd" d="M20.9607 11.0348C20.3147 10.3878 19.5462 9.87478 18.6997 9.5255C17.8532 9.17623 16.9455 8.99762 16.0292 9.00002C12.1879 9.00002 9.05833 12.1125 9.05833 15.9364C9.05542 17.154 9.37622 18.3507 9.98817 19.4049L9 23L12.696 22.0337C13.718 22.5879 14.863 22.8788 16.0268 22.8798H16.0297C19.8716 22.8798 22.9977 19.7679 23 15.9411C23 14.0881 22.2755 12.346 20.9607 11.0342V11.0348ZM16.0292 21.7074H16.0268C14.9894 21.7074 13.971 21.43 13.0781 20.9043L12.8663 20.7794L10.6718 21.3514L11.2575 19.2232L11.121 19.0054C10.5403 18.0862 10.2329 17.0222 10.2343 15.9364C10.2343 12.7589 12.8343 10.173 16.0315 10.173C16.7924 10.1711 17.5461 10.3195 18.249 10.6096C18.952 10.8996 19.5901 11.3256 20.1265 11.8629C20.6655 12.3975 21.0928 13.0332 21.3837 13.7332C21.6746 14.4332 21.8232 15.1836 21.8211 15.9411C21.8211 19.1215 19.2217 21.7074 16.0292 21.7074ZM19.2054 17.3882C19.0322 17.3022 18.1752 16.883 18.016 16.8261C17.8567 16.7668 17.7401 16.7395 17.624 16.912C17.5073 17.0862 17.1748 17.477 17.0728 17.5926C16.9724 17.7058 16.8698 17.7221 16.6965 17.6355C16.5215 17.5496 15.9609 17.3655 15.2953 16.7738C14.7779 16.315 14.4273 15.746 14.327 15.5735C14.2243 15.3993 14.3153 15.3064 14.4022 15.2193C14.4816 15.1426 14.5773 15.0178 14.6642 14.9156C14.7505 14.8163 14.7808 14.7437 14.8392 14.6275C14.8963 14.512 14.8672 14.4098 14.8234 14.3238C14.7802 14.2379 14.432 13.3825 14.2862 13.0353C14.1444 12.6973 14.0009 12.7449 13.8942 12.7385C13.7938 12.7339 13.6777 12.7339 13.5617 12.7339C13.445 12.7339 13.256 12.7769 13.0962 12.9517C12.9369 13.1241 12.4878 13.544 12.4878 14.3964C12.4878 15.2495 13.1119 16.0746 13.1994 16.1908C13.2857 16.304 14.4273 18.0548 16.1744 18.8062C16.4981 18.9456 16.8292 19.0675 17.1661 19.1715C17.5832 19.3027 17.9635 19.2847 18.2645 19.2412C18.5993 19.1918 19.2941 18.8219 19.4399 18.416C19.584 18.0124 19.584 17.6652 19.5402 17.5926C19.4971 17.52 19.381 17.4764 19.2054 17.3882Z" fill="white"/>
<rect x="0.5" y="0.5" width="31" height="31" rx="15.5" stroke="url(#paint0_linear_66_334)"/>
<defs>
<linearGradient id="paint0_linear_66_334" x1="16" y1="0" x2="16" y2="32" gradientUnits="userSpaceOnUse">
<stop stop-color="#957941"/>
<stop offset="1" stop-color="#FFF1A5"/>
</linearGradient>
</defs>
</svg>
