<svg width="48" height="58" viewBox="0 0 48 58" fill="none" xmlns="http://www.w3.org/2000/svg">
<g clip-path="url(#clip0_66_343)">
<path d="M4.10577 9.43519C4.86106 11.9065 7.89193 13.1901 9.54777 12.692C11.3392 12.1556 12.995 9.46393 12.2397 6.99259C11.4844 4.52124 9.04424 3.05567 6.79772 3.73577C4.5512 4.40629 3.35047 6.96385 4.10577 9.43519ZM3.05997 9.7513C2.10133 6.63817 3.6216 3.42925 6.44912 2.57673C9.27664 1.73379 12.3366 3.56335 13.2952 6.67648C13.8956 8.64015 13.2952 10.7188 12.1913 12.146C11.5328 12.9985 11.4263 14.1672 11.9589 15.0963C12.4237 15.9105 13.2758 16.7726 14.738 17.5868H14.7574C15.6289 17.9029 17.275 18.1711 18.6694 18.4872C18.6694 18.4872 20.6061 20.834 23.4723 24.3782L21.2645 27.1657C21.1774 27.2806 21.0902 27.386 21.0031 27.5009L12.6948 18.2094H12.6852L9.03456 14.5695C8.67627 14.215 8.24053 13.9564 7.74668 13.8415C5.83907 13.4008 3.74749 11.9544 3.07934 9.76088L3.05997 9.7513ZM47.9323 57.6648L24.1889 31.093L26.6097 28.3055C35.6732 39.5799 49.0749 56.659 47.9226 57.6648H47.9323ZM43.1487 1.47516C44.1461 0.938746 45.802 1.07285 45.1919 0.392751C44.5819 -0.287348 43.3424 -0.124508 42.161 1.24527C41.6769 1.80084 41.2799 2.21273 41.0475 2.44263C40.941 2.40431 40.8441 2.366 40.7376 2.33726C37.9004 1.52306 34.8599 3.41009 33.9496 6.5328C33.3493 8.58268 34.0658 10.7283 35.2569 12.146C35.9444 12.9506 36.0606 14.1097 35.5667 15.0388C35.1213 15.8818 34.2692 16.7439 32.7392 17.491C31.8774 17.8167 30.2312 18.1136 28.8369 18.4489L21.6712 27.5009C12.7723 38.8519 -1.1232 56.9751 0.0678417 58L34.8018 18.0753L38.4814 14.3013C38.8106 13.966 39.2173 13.7074 39.6724 13.5828C41.551 13.0943 43.5748 11.6288 44.2042 9.45435C44.9789 6.81059 43.9815 4.13808 41.948 2.87368C41.8609 2.48094 42.3353 1.89663 43.1391 1.46558L43.1487 1.47516ZM22.7364 26.8783C23.2206 26.361 24.0049 26.2748 24.5762 26.658L22.688 28.7079C22.2522 28.181 22.2522 27.3956 22.7364 26.8783ZM24.8377 28.7749C24.3535 29.3018 23.5692 29.3784 22.9882 28.9856L24.8764 26.9358C25.3218 27.4626 25.3218 28.2481 24.8377 28.7749ZM43.1584 9.16699C42.4322 11.6479 39.4207 12.9698 37.7648 12.5004C35.9734 11.9832 34.2692 9.32025 34.9954 6.83932C35.7217 4.3584 38.1328 2.8641 40.389 3.50588C42.6452 4.14766 43.8847 6.68606 43.1584 9.16699Z" fill="url(#paint0_linear_66_343)"/>
</g>
<defs>
<linearGradient id="paint0_linear_66_343" x1="183.885" y1="-63.3641" x2="21.6887" y2="35.4352" gradientUnits="userSpaceOnUse">
<stop stop-color="#E4C784"/>
<stop offset="0.19" stop-color="#EAD692"/>
<stop offset="0.41" stop-color="#F5EFE3"/>
<stop offset="0.73" stop-color="#B48426"/>
<stop offset="0.93" stop-color="#DFC081"/>
<stop offset="0.95" stop-color="#E3C589"/>
</linearGradient>
<clipPath id="clip0_66_343">
<rect width="48" height="58" fill="white"/>
</clipPath>
</defs>
</svg>
