<svg width="32" height="32" viewBox="0 0 32 32" fill="none" xmlns="http://www.w3.org/2000/svg">
<path d="M12.6658 20.2139L10.9436 18.491C10.7117 18.2618 10.4182 18.1049 10.0988 18.0394C9.77947 17.9739 9.44796 18.0025 9.14454 18.1218L7.04562 18.9602C6.739 19.0847 6.47609 19.2972 6.29001 19.5709C6.10394 19.8447 6.00303 20.1674 6 20.4985V24.3442C6.00179 24.5694 6.0491 24.7919 6.13911 24.9983C6.22911 25.2047 6.35994 25.3908 6.52372 25.5453C6.68749 25.6998 6.88083 25.8195 7.09208 25.8973C7.30333 25.9751 7.52813 26.0093 7.75295 25.9979C22.4608 25.0826 25.4285 12.6224 25.9898 7.85368C26.0158 7.6195 25.992 7.38246 25.9199 7.15814C25.8478 6.93383 25.7291 6.72733 25.5715 6.55223C25.4139 6.37713 25.221 6.23739 25.0055 6.14222C24.7901 6.04704 24.5569 5.99859 24.3214 6.00003H20.6079C20.2765 6.00101 19.953 6.10115 19.679 6.28756C19.405 6.47397 19.193 6.73814 19.0702 7.04607L18.2322 9.14584C18.109 9.44817 18.0776 9.78011 18.1418 10.1002C18.2061 10.4203 18.3632 10.7144 18.5935 10.9456L20.3157 12.6685C20.3157 12.6685 19.3239 19.3832 12.6658 20.2139Z" fill="white"/>
</svg>
