<svg width="400" height="400" viewBox="0 0 400 400" fill="none" xmlns="http://www.w3.org/2000/svg">
<path d="M399.5 183.5C399.5 284.528 310.222 366.5 200 366.5C89.7778 366.5 0.5 284.528 0.5 183.5C0.5 82.4715 89.7778 0.5 200 0.5C310.222 0.5 399.5 82.4715 399.5 183.5Z" stroke="url(#paint0_linear_210_311)"/>
<g clip-path="url(#clip0_210_311)">
<path d="M107.989 97.9944C111.482 108.732 125.5 114.309 133.158 112.145C141.443 109.814 149.102 98.1193 145.608 87.3817C142.115 76.6441 130.829 70.2765 120.439 73.2314C110.049 76.1447 104.495 87.2569 107.989 97.9944ZM103.152 99.3678C98.7182 85.8418 105.749 71.8996 118.827 68.1956C131.904 64.5332 146.056 72.4823 150.49 86.0083C153.267 94.5401 150.49 103.571 145.384 109.772C142.339 113.477 141.846 118.554 144.309 122.591C146.459 126.129 150.4 129.874 157.163 133.412H157.252C161.283 134.785 168.897 135.95 175.346 137.324C175.346 137.324 184.303 147.52 197.559 162.919L187.348 175.03C186.945 175.53 186.542 175.987 186.139 176.487L147.713 136.117H147.668L130.784 120.302C129.127 118.762 127.112 117.638 124.828 117.139C116.005 115.224 106.332 108.94 103.242 99.4095L103.152 99.3678ZM310.686 307.544L200.873 192.094L212.069 179.983C253.988 228.968 315.971 303.174 310.642 307.544H310.686ZM288.562 63.4095C293.175 61.0788 300.834 61.6615 298.012 58.7066C295.191 55.7517 289.458 56.4592 283.994 62.4106C281.755 64.8245 279.919 66.6141 278.844 67.6129C278.351 67.4465 277.904 67.28 277.411 67.1551C264.289 63.6176 250.226 71.8164 246.017 85.384C243.24 94.2904 246.554 103.613 252.063 109.772C255.242 113.268 255.78 118.304 253.496 122.341C251.436 126.004 247.494 129.749 240.418 132.996C236.433 134.411 228.819 135.701 222.37 137.157L189.229 176.487C148.071 225.805 83.8047 304.547 89.3133 309L249.958 135.534L266.976 119.137C268.499 117.68 270.38 116.556 272.485 116.015C281.173 113.893 290.533 107.525 293.444 98.0777C297.027 86.591 292.414 74.9794 283.009 69.4858C282.606 67.7794 284.801 65.2407 288.518 63.3678L288.562 63.4095ZM194.155 173.782C196.395 171.534 200.022 171.16 202.665 172.824L193.931 181.731C191.916 179.442 191.916 176.029 194.155 173.782ZM203.874 182.022C201.634 184.311 198.007 184.644 195.32 182.938L204.053 174.031C206.113 176.32 206.113 179.733 203.874 182.022ZM288.607 96.8291C285.248 107.608 271.32 113.352 263.662 111.312C255.377 109.065 247.494 97.495 250.853 86.7158C254.212 75.9366 265.364 69.4441 275.799 72.2326C286.234 75.021 291.966 86.0499 288.607 96.8291Z" fill="url(#paint1_linear_210_311)"/>
</g>
<defs>
<linearGradient id="paint0_linear_210_311" x1="200" y1="0" x2="200" y2="367" gradientUnits="userSpaceOnUse">
<stop stop-color="#E0C182"/>
<stop offset="1" stop-color="#E3C589"/>
</linearGradient>
<linearGradient id="paint1_linear_210_311" x1="939.47" y1="-218.306" x2="215.396" y2="251.192" gradientUnits="userSpaceOnUse">
<stop stop-color="#E4C784"/>
<stop offset="0.19" stop-color="#EAD692"/>
<stop offset="0.41" stop-color="#F5EFE3"/>
<stop offset="0.73" stop-color="#B48426"/>
<stop offset="0.93" stop-color="#DFC081"/>
<stop offset="0.95" stop-color="#E3C589"/>
</linearGradient>
<clipPath id="clip0_210_311">
<rect width="222" height="252" fill="white" transform="translate(89 57)"/>
</clipPath>
</defs>
</svg>
