<svg width="134" height="134" viewBox="0 0 134 134" fill="none" xmlns="http://www.w3.org/2000/svg">
<circle cx="67" cy="67" r="66.5" stroke="url(#paint0_linear_210_312)"/>
<g clip-path="url(#clip0_210_312)">
<path d="M35.5007 35.9662C36.6966 39.8863 41.4955 41.9223 44.1172 41.1322C46.9536 40.2813 49.5754 36.0118 48.3795 32.0917C47.1836 28.1717 43.32 25.847 39.763 26.9257C36.206 27.9893 34.3048 32.0461 35.5007 35.9662ZM33.8449 36.4676C32.327 31.5295 34.7341 26.4395 39.211 25.0873C43.6879 23.7502 48.5328 26.6522 50.0507 31.5903C51.0012 34.7051 50.0507 38.0022 48.3028 40.2661C47.2603 41.6184 47.0916 43.4721 47.9349 44.9459C48.6708 46.2374 50.02 47.6049 52.3351 48.8963H52.3658C53.7456 49.3978 56.3521 49.8232 58.5598 50.3246C58.5598 50.3246 61.6262 54.0471 66.1644 59.6689L62.6688 64.0904C62.5308 64.2727 62.3928 64.4399 62.2548 64.6222L49.1001 49.884H49.0848L43.3046 44.1102C42.7374 43.548 42.0474 43.1378 41.2655 42.9555C38.2451 42.2565 34.9335 39.9622 33.8756 36.4828L33.8449 36.4676ZM104.893 112.468L67.299 70.32L71.132 65.8985C85.4826 83.7819 106.702 110.873 104.877 112.468H104.893ZM97.3188 23.3399C98.898 22.4891 101.52 22.7018 100.554 21.623C99.5879 20.5442 97.6254 20.8025 95.7549 22.9753C94.9883 23.8565 94.3597 24.5099 93.9918 24.8745C93.8231 24.8138 93.6698 24.753 93.5011 24.7074C89.0089 23.4159 84.1947 26.4091 82.7535 31.3624C81.8029 34.6139 82.9375 38.0174 84.8233 40.2661C85.9119 41.5424 86.0959 43.3809 85.3139 44.8547C84.6087 46.1918 83.2595 47.5593 80.837 48.7444C79.4725 49.261 76.8661 49.732 74.6583 50.2638L63.3127 64.6222C49.2227 82.6271 27.2215 111.374 29.1073 113L84.1027 49.6712L89.9288 43.6848C90.4501 43.153 91.094 42.7428 91.8146 42.5452C94.789 41.7703 97.9934 39.4456 98.9899 35.9966C100.216 31.803 98.6373 27.5639 95.4176 25.5583C95.2796 24.9353 96.0309 24.0085 97.3034 23.3248L97.3188 23.3399ZM64.9992 63.6346C65.7658 62.8141 67.0077 62.6774 67.9123 63.2851L64.9226 66.5366C64.2326 65.701 64.2326 64.4551 64.9992 63.6346ZM68.3262 66.643C67.5596 67.4787 66.3178 67.6002 65.3979 66.9773L68.3876 63.7257C69.0928 64.5614 69.0928 65.8073 68.3262 66.643ZM97.3341 35.5408C96.1842 39.476 91.416 41.5728 88.7943 40.8283C85.9579 40.0078 83.2595 35.7839 84.4094 31.8486C85.5592 27.9134 89.3769 25.5431 92.9492 26.5611C96.5215 27.5791 98.484 31.6055 97.3341 35.5408Z" fill="url(#paint1_linear_210_312)"/>
</g>
<defs>
<linearGradient id="paint0_linear_210_312" x1="67" y1="0" x2="67" y2="134" gradientUnits="userSpaceOnUse">
<stop stop-color="#E0C182"/>
<stop offset="1" stop-color="#E3C589"/>
</linearGradient>
<linearGradient id="paint1_linear_210_312" x1="320.152" y1="-79.5086" x2="63.0885" y2="76.7934" gradientUnits="userSpaceOnUse">
<stop stop-color="#E4C784"/>
<stop offset="0.19" stop-color="#EAD692"/>
<stop offset="0.41" stop-color="#F5EFE3"/>
<stop offset="0.73" stop-color="#B48426"/>
<stop offset="0.93" stop-color="#DFC081"/>
<stop offset="0.95" stop-color="#E3C589"/>
</linearGradient>
<clipPath id="clip0_210_312">
<rect width="76" height="92" fill="white" transform="translate(29 21)"/>
</clipPath>
</defs>
</svg>
