<svg width="22" height="22" viewBox="0 0 22 22" fill="none" xmlns="http://www.w3.org/2000/svg">
<path d="M4.20108 15.8776C3.25692 14.8748 2.75 13.7501 2.75 11.9268C2.75 8.71848 5.00225 5.84289 8.2775 4.42114L9.09608 5.68431C6.039 7.33798 5.44133 9.48389 5.203 10.8369C5.69525 10.5821 6.33967 10.4931 6.97125 10.5518C8.62492 10.7049 9.92842 12.0625 9.92842 13.7501C9.92842 14.601 9.5904 15.417 8.98872 16.0187C8.38704 16.6204 7.57099 16.9584 6.72008 16.9584C6.24952 16.9543 5.78447 16.8566 5.35201 16.6711C4.91956 16.4855 4.52832 16.2158 4.20108 15.8776ZM13.3678 15.8776C12.4236 14.8748 11.9167 13.7501 11.9167 11.9268C11.9167 8.71848 14.1689 5.84289 17.4442 4.42114L18.2628 5.68431C15.2057 7.33798 14.608 9.48389 14.3697 10.8369C14.8619 10.5821 15.5063 10.4931 16.1379 10.5518C17.7916 10.7049 19.0951 12.0625 19.0951 13.7501C19.0951 14.601 18.7571 15.417 18.1554 16.0187C17.5537 16.6204 16.7377 16.9584 15.8867 16.9584C15.4162 16.9543 14.9511 16.8566 14.5187 16.6711C14.0862 16.4855 13.695 16.2158 13.3678 15.8776Z" fill="url(#paint0_linear_66_372)"/>
<defs>
<linearGradient id="paint0_linear_66_372" x1="10.9225" y1="4.42114" x2="10.9225" y2="16.9584" gradientUnits="userSpaceOnUse">
<stop stop-color="#C98C3F"/>
<stop offset="1" stop-color="#FFF1A5"/>
</linearGradient>
</defs>
</svg>
