<svg width="23" height="23" viewBox="0 0 23 23" fill="none" xmlns="http://www.w3.org/2000/svg">
<path d="M18.608 6.40068C19.595 7.4491 20.125 8.62497 20.125 10.5311C20.125 13.8853 17.7704 16.8916 14.3463 18.3779L13.4905 17.0573C16.6865 15.3285 17.3113 13.0851 17.5605 11.6706C17.0459 11.937 16.3722 12.0299 15.7119 11.9686C13.983 11.8086 12.6203 10.3893 12.6203 8.62497C12.6203 7.73539 12.9737 6.88224 13.6027 6.25322C14.2317 5.62419 15.0849 5.2708 15.9745 5.2708C16.4664 5.2751 16.9526 5.37721 17.4047 5.57119C17.8568 5.76516 18.2658 6.04713 18.608 6.40068ZM9.02462 6.40068C10.0117 7.4491 10.5417 8.62497 10.5417 10.5311C10.5417 13.8853 8.18704 16.8916 4.76292 18.3779L3.90713 17.0573C7.10317 15.3285 7.728 13.0851 7.97717 11.6706C7.46254 11.937 6.78883 12.0299 6.12854 11.9686C4.39971 11.8086 3.03696 10.3893 3.03696 8.62497C3.03696 7.73539 3.39034 6.88225 4.01937 6.25322C4.6484 5.62419 5.50155 5.2708 6.39113 5.2708C6.88308 5.2751 7.36926 5.37721 7.82138 5.57119C8.2735 5.76516 8.68251 6.04713 9.02462 6.40068Z" fill="url(#paint0_linear_66_378)"/>
<defs>
<linearGradient id="paint0_linear_66_378" x1="11.581" y1="18.3779" x2="11.581" y2="5.2708" gradientUnits="userSpaceOnUse">
<stop stop-color="#C98C3F"/>
<stop offset="1" stop-color="#FFF1A5"/>
</linearGradient>
</defs>
</svg>
